<svg xmlns="http://www.w3.org/2000/svg" height="24px" viewBox="0 -960 960 960" width="24px" fill="#e3e3e3"><path d="M111-437h169.85v-145.61q0-26.19 18.6-44.79 18.6-18.6 44.78-18.6 26.19 0 44.79 18.6 18.59 18.6 18.59 44.79V-437h144.78v-265.61q0-26.19 18.59-44.79 18.6-18.6 44.79-18.6 26.18 0 44.78 18.6t18.6 44.79V-437h169.85q17.75 0 30.37 12.63Q892-411.74 892-393.99q0 17.76-12.63 30.37Q866.75-351 849-351H679.15v145.61q0 26.19-18.6 44.79-18.6 18.6-44.78 18.6-26.19 0-44.79-18.6-18.59-18.6-18.59-44.79V-351H437.15v265.61q0 26.19-18.59 44.79-18.6 18.6-44.79 18.6-26.18 0-44.78-18.6t-18.6-44.79V-351H111q-17.75 0-30.37-12.63Q68-376.26 68-394.01q0-17.76 12.63-30.37Q93.25-437 111-437Z"/></svg>
