<svg xmlns="http://www.w3.org/2000/svg" width="24" height="24" viewBox="0 0 24 24">
    <defs>
        <linearGradient id="clockBodyGradient" x1="0%" y1="0%" x2="100%" y2="100%">
            <stop offset="0%" style="stop-color:#ef4444;" />
            <stop offset="100%" style="stop-color:#dc2626;" />
        </linearGradient>
        <linearGradient id="metalGradient" x1="0%" y1="0%" x2="100%" y2="100%">
            <stop offset="0%" style="stop-color:#e5e7eb;" />
            <stop offset="100%" style="stop-color:#9ca3af;" />
        </linearGradient>
        <filter id="clockShadow" x="-10%" y="-10%" width="120%" height="120%">
            <feDropShadow dx="1" dy="1" stdDeviation="1.5" flood-color="#000" flood-opacity="0.2"/>
        </filter>
    </defs>

    <g filter="url(#clockShadow)">
        <path fill="url(#metalGradient)" 
              d="M4.118 5.746a.734.734 0 0 0-1.006-.23L.7 7.926a.72.72 0 0 0 .232.996.734.734 0 0 0 1.006-.23l2.412-1.494a.72.72 0 0 0-.232-.996zm15.763 0a.72.72 0 0 0-.232.996l2.412 1.494a.734.734 0 0 0 1.006.23.72.72 0 0 0 .232-.996L20.887 5.516a.734.734 0 0 0-1.006.23z"
              transform="translate(0, 11)"/>

        <circle cx="12" cy="13.325" r="8.757" fill="url(#clockBodyGradient)"/>
        
        <g fill="url(#metalGradient)">
            <path d="M8.24 2.34a.72.72 0 0 1-.232.996l-3.891 2.41a.734.734 0 0 1-1.006-.23a.72.72 0 0 1 .232-.996l3.892-2.41a.734.734 0 0 1 1.006.23z"/>
            <path d="M15.76 2.34a.734.734 0 0 1 1.005-.23l3.892 2.41a.72.72 0 0 1 .232.996a.734.734 0 0 1-1.006.23l-3.891-2.41a.72.72 0 0 1-.233-.996z"/>
        </g>
        
        <circle cx="12" cy="13.325" r="7" fill="#f9fafb"/>
        
        <path fill="#374151"
              d="M12 8.747c.402 0 .729.324.729.723v3.556l2.219 2.198a.72.72 0 0 1 0 1.022a.734.734 0 0 1-1.032 0l-2.433-2.41a.72.72 0 0 1-.213-.51V9.47c0-.4.326-.723.73-.723z"/>
    </g>
</svg>