<svg xmlns="http://www.w3.org/2000/svg" width="24" height="24" viewBox="0 0 24 24">
    <defs>
        <linearGradient id="screenGradient" x1="0%" y1="0%" x2="100%" y2="100%">
            <stop offset="0%" style="stop-color:#4ade80;" />
            <stop offset="100%" style="stop-color:#22c55e;" />
        </linearGradient>
        <filter id="monitorShadow" x="-10%" y="-10%" width="120%" height="130%">
            <feDropShadow dx="0" dy="1" stdDeviation="1.5" flood-color="#000" flood-opacity="0.2"/>
        </filter>
    </defs>

    <g filter="url(#monitorShadow)">
        <path fill="#374151" 
              d="M21 2H3a2 2 0 0 0-2 2v12a2 2 0 0 0 2 2h7v2h-2v2h6v-2h-2v-2h7a2 2 0 0 0 2-2V4a2 2 0 0 0-2-2Z"/>
        
        <rect x="3" y="4" width="18" height="12" fill="url(#screenGradient)"/>
        
        <path d="M8 10l3 3l5-5"
              fill="none" 
              stroke="#ffffff" 
              stroke-width="2.5" 
              stroke-linecap="round" 
              stroke-linejoin="round"/>
    </g>
</svg>