<svg xmlns="http://www.w3.org/2000/svg" height="24px" viewBox="0 -960 960 960" width="24px">
  <defs>
    <linearGradient id="wrenchGradient" x1="0%" y1="0%" x2="100%" y2="100%">
      <stop offset="0%" style="stop-color:#94a3b8;stop-opacity:1" />
      <stop offset="100%" style="stop-color:#64748b;stop-opacity:1" />
    </linearGradient>
    <linearGradient id="screwGradient" x1="0%" y1="0%" x2="100%" y2="100%">
      <stop offset="0%" style="stop-color:#f59e0b;stop-opacity:1" />
      <stop offset="100%" style="stop-color:#d97706;stop-opacity:1" />
    </linearGradient>
    <filter id="dropShadow" x="-20%" y="-20%" width="140%" height="140%">
      <feDropShadow dx="10" dy="10" stdDeviation="15" flood-color="#000" flood-opacity="0.2"/>
    </filter>
  </defs>

  <g fill="url(#wrenchGradient)" filter="url(#dropShadow)">
    <path d="M479.54-395.39 388.15-304q6.39 17 9.96 33.31 3.58 16.31 3.58 34.69 0 69.29-48.42 117.72-48.42 48.43-117.69 48.43t-117.73-48.42q-48.46-48.42-48.46-117.69t48.43-117.73q48.43-48.46 117.72-48.46 17.38 0 34.19 2.57 16.81 2.58 31.81 10.97L394.92-480l-93.38-93.39q-15 8.39-31.81 10.97-16.81 2.57-34.19 2.57-69.29 0-117.72-48.42-48.43-48.42-48.43-117.69t48.42-117.73q48.42-48.46 117.69-48.46t117.73 48.43q48.46 48.43 48.46 117.72 0 18.38-3.58 34.69-3.57 16.31-9.96 33.31l443.23 445.23q28 28 12.85 64.77-15.15 36.77-55.68 36.77-11.73 0-22.83-4.64-11.11-4.65-19.57-12.9L479.54-395.39Zm124.77-124.76-84.62-84.62 226.46-228.46q8.52-8.25 19.69-12.9 11.17-4.64 22.88-4.64 40.43 0 55.74 36.58 15.31 36.57-12.69 65.57L604.31-520.15Z"/>
  </g>
  
  <g fill="url(#screwGradient)" filter="url(#dropShadow)">
    <path d="m235.54-645.85q33.06 0 56.61-23.54 23.54-23.55 23.54-56.61t-23.54-56.61q-23.55-23.54-56.61-23.54-33.07 0-56.61 23.54-23.55 23.55-23.55 56.61t23.55 56.61q23.54 23.54 56.61 23.54Zm244 187.85q9.6 0 16.8-7.2 7.2-7.2 7.2-16.8 0-9.6-7.2-16.8-7.2-7.2-16.8-7.2-9.6 0-16.8 7.2-7.2 7.2-7.2 16.8 0 9.6 7.2 16.8 7.2 7.2 16.8 7.2Zm-244 302.15q33.06 0 56.61-23.54 23.54-23.55 23.54-56.61t-23.54-56.61q-23.55-23.54-56.61-23.54-33.07 0-56.61 23.54-23.55 23.55-23.55 56.61t23.55 56.61q23.54 23.54 56.61 23.54Z"/>
  </g>
</svg>