<svg xmlns="http://www.w3.org/2000/svg" height="24px" viewBox="0 -960 960 960" width="24px">
  <defs>
    <linearGradient id="binGradient" x1="0%" y1="0%" x2="0%" y2="100%">
      <stop offset="0%" style="stop-color:#e5e7eb;stop-opacity:1" />
      <stop offset="100%" style="stop-color:#d1d5db;stop-opacity:1" />
    </linearGradient>
    <filter id="dropShadow" x="-20%" y="-20%" width="140%" height="140%">
      <feDropShadow dx="5" dy="5" stdDeviation="10" flood-color="#000" flood-opacity="0.15"/>
    </filter>
  </defs>

  <g filter="url(#dropShadow)">
    <path fill="url(#binGradient)" 
          d="M288-108q-42 0-70-28t-28-70V-724h548v518q0 42-28.5 70T674-108H288Z"/>
    
    <path fill="#6b7280" 
          d="M180-810h600v-44H180v44Zm221-44h158v-38H401v38Z"/>
    
    <g fill="#f3f4f6">
      <path d="M398-275q-18 0-30.5-12.5T355-318v-282q0-18 12.5-30.5T398-643q18 0 30.5 12.5T441-600v282q0 18-12.5 30.5T398-275Z"/>
      <path d="M564-275q-18 0-30.5-12.5T521-318v-282q0-18 12.5-30.5T564-643q18 0 30.5 12.5T607-600v282q0 18-12.5 30.5T564-275Z"/>
    </g>
  </g>
</svg>