<svg xmlns="http://www.w3.org/2000/svg" width="24" height="24" viewBox="0 0 24 24">
  <defs>
    <linearGradient id="bulbGradient" x1="0%" y1="0%" x2="100%" y2="100%">
      <stop offset="0%" style="stop-color:#fef08a;stop-opacity:1" />
      <stop offset="100%" style="stop-color:#facc15;stop-opacity:1" />
    </linearGradient>
    <linearGradient id="cursorGradient" x1="0%" y1="0%" x2="100%" y2="100%">
      <stop offset="0%" style="stop-color:#ffffff;stop-opacity:1" />
      <stop offset="100%" style="stop-color:#e5e7eb;stop-opacity:1" />
    </linearGradient>
    <linearGradient id="baseGradient" x1="0%" y1="0%" x2="100%" y2="100%">
      <stop offset="0%" style="stop-color:#d1d5db;stop-opacity:1" />
      <stop offset="100%" style="stop-color:#9ca3af;stop-opacity:1" />
    </linearGradient>
    <filter id="dropShadow" x="-20%" y="-20%" width="140%" height="140%">
      <feDropShadow dx="1" dy="1" stdDeviation="1.5" flood-color="#000" flood-opacity="0.2"/>
    </filter>
  </defs>

  <g filter="url(#dropShadow)">
    <path fill="url(#bulbGradient)" 
          d="M12 2c4.41 0 8 3.543 8 7.933c0 3.006-1.522 5.196-2.78 6.494l-.284.283l-.27.252l-.252.22l-.33.27l-.328.244c-.241.17-.403.419-.55.678l-.205.364c-.238.41-.517.762-1.108.762h-3.786c-.59 0-.87-.351-1.108-.762l-.118-.208c-.172-.312-.348-.63-.637-.834l-.232-.171l-.199-.155l-.227-.188l-.252-.22l-.27-.252l-.285-.283C5.522 15.129 4 12.939 4 9.933C4 5.543 7.59 2 12 2Z" />
    
    <path fill="url(#baseGradient)"
          d="M13 20a1 1 0 0 1-2 0h2Z"/>
    <rect x="10" y="19" width="4" height="3" rx="1" fill="url(#baseGradient)"/>
  </g>
  
  <path fill="url(#cursorGradient)"
        d="M13.707 6.293a1 1 0 0 0-1.32-.083l-.094.083L10.3 8.286a1.01 1.01 0 0 0-.084 1.333l.084.095L11.586 11l-1.293 1.293a1 1 0 0 0 1.32 1.497l.094-.083l1.993-1.993c.36-.36.396-.931.084-1.333l-.084-.095L12.414 9l1.293-1.293a1 1 0 0 0 0-1.414Z"/>
</svg>