<svg xmlns="http://www.w3.org/2000/svg" height="24px" viewBox="0 -960 960 960" width="24px">
  <defs>
    <linearGradient id="mainDocGradient" x1="0%" y1="0%" x2="100%" y2="100%">
      <stop offset="0%" style="stop-color:#6366f1;stop-opacity:1" />
      <stop offset="100%" style="stop-color:#4f46e5;stop-opacity:1" />
    </linearGradient>
    <linearGradient id="secondaryDocGradient" x1="0%" y1="0%" x2="100%" y2="100%">
      <stop offset="0%" style="stop-color:#a78bfa;stop-opacity:1" />
      <stop offset="100%" style="stop-color:#8b5cf6;stop-opacity:1" />
    </linearGradient>
    <linearGradient id="cornerGradient" x1="0%" y1="0%" x2="100%" y2="100%">
      <stop offset="0%" style="stop-color:#fde047;stop-opacity:1" />
      <stop offset="100%" style="stop-color:#fbbf24;stop-opacity:1" />
    </linearGradient>
    <filter id="dropShadow" x="-20%" y="-20%" width="140%" height="140%">
      <feDropShadow dx="10" dy="10" stdDeviation="15" flood-color="#000" flood-opacity="0.2"/>
    </filter>
  </defs>

  <path fill="url(#mainDocGradient)" filter="url(#dropShadow)"
        d="M787-213H384q-57.12 0-96.56-39.44Q248-291.88 248-349v-489q0-57.13 39.44-96.56Q326.88-974 384-974h207q27.23 0 52.25 10.59Q668.27-952.83 688-934l195 196q18.83 19.73 29.41 44.75Q923-668.23 923-641v292q0 57.12-39.44 96.56Q844.13-213 787-213Z"/>

  <path fill="url(#cornerGradient)"
        d="M787-667H719q-42.33 0-72.67-30.04Q616-727 616-769v-69l171 171Z"/>

  <path fill="url(#secondaryDocGradient)"
        d="M158 13q-57.12 0-96.56-39.44Q22-65.88 22-123v-490q0-29 20.2-48.5T90-681q27.6 0 47.8 19.5Q158-642 158-613v490h390q27.6 0 47.8 19.5Q616-84 616-55.5T595.8-7Q575.6 13 548 13H158Z"/>
</svg>