<svg xmlns="http://www.w3.org/2000/svg" height="24px" viewBox="0 -960 960 960" width="24px">
  <defs>
    <linearGradient id="clipGradient" x1="0%" y1="0%" x2="100%" y2="100%">
      <stop offset="0%" style="stop-color:#7dd3fc;stop-opacity:1" />
      <stop offset="100%" style="stop-color:#0ea5e9;stop-opacity:1" />
    </linearGradient>
    <linearGradient id="boardGradient" x1="0%" y1="0%" x2="100%" y2="100%">
      <stop offset="0%" style="stop-color:#f59e0b;stop-opacity:1" />
      <stop offset="100%" style="stop-color:#d97706;stop-opacity:1" />
    </linearGradient>
    <filter id="dropShadow" x="-20%" y="-20%" width="140%" height="140%">
      <feDropShadow dx="10" dy="10" stdDeviation="15" flood-color="#000" flood-opacity="0.2"/>
    </filter>
  </defs>

  <path fill="url(#boardGradient)" filter="url(#dropShadow)" 
        d="M206.31-114q-41.83 0-70.07-28.24Q108-170.48 108-212.31v-547.38q0-41.83 28.24-70.07Q164.48-858 206.31-858h547.38q41.83 0 70.07 28.24Q852-801.52 852-759.69v547.38q0 41.83-28.24 70.07Q795.52-114 753.69-114H206.31Z"/>
  
  <path fill="url(#clipGradient)" 
        d="M621-772v95.13q0 21.03-14.35 35.26-14.35 14.22-34.65 14.22H388q-20.3 0-34.64-14.22Q339-655.84 339-676.87V-772h-40.31q-15.31-32.23-44.41-50.96-29.11-18.73-65.05-18.73-35.08 0-64.92 18.73-29.85 18.73-45.16 50.96h-0.45v0q-15.31-32.23 45.16-50.96 29.84-18.73 64.92-18.73 35.94 0 65.05 18.73 29.1 18.73 44.41 50.96H621Z"/>
  
  <path fill="#fff" 
        d="M481.07-842.69q15.39 0 25.74-10.42 10.34-10.41 10.34-25.81 0-15.39-10.41-25.74-10.41-10.34-25.81-10.34-15.39 0-25.74 10.41-10.34 10.42-10.34 25.81 0 15.39 10.41 25.74 10.41 10.35 25.81 10.35Z"/>
</svg>