<svg xmlns="http://www.w3.org/2000/svg" height="24px" viewBox="0 -960 960 960" width="24px">
  <defs>
    <linearGradient id="squareGradient" x1="0%" y1="0%" x2="100%" y2="100%">
      <stop offset="0%" style="stop-color:#22d3ee;stop-opacity:1" />
      <stop offset="100%" style="stop-color:#06b6d4;stop-opacity:1" />
    </linearGradient>
    <filter id="dropShadow" x="-20%" y="-20%" width="140%" height="140%">
      <feDropShadow dx="10" dy="10" stdDeviation="15" flood-color="#000" flood-opacity="0.2"/>
    </filter>
  </defs>

  <g fill="#4b5563">
    <path d="M153.31-761.38q-18.73 0-32.02-13.29Q108-787.96 108-806.69q0-18.73 13.29-32.02Q134.58-852 153.31-852q18.73 0 32.02 13.29 13.29 13.29 13.29 32.02 0 18.73-13.29 32.02-13.29 13.29-32.02 13.29Zm163.84 0q-18.73 0-32.01-13.29-13.29-13.29-13.29-32.02 0-18.73 13.29-32.02Q298.42-852 317.15-852q18.73 0 32.02 13.29 13.29 13.29 13.29 32.02 0 18.73-13.29 32.02-13.29 13.29-32.02 13.29Zm162.85 0q-18.73 0-32.02-13.29-13.29-13.29-13.29-32.02 0-18.73 13.29-32.02Q461.27-852 480-852q18.73 0 32.02 13.29 13.29 13.29 13.29 32.02 0 18.73-13.29 32.02-13.29 13.29-32.02 13.29Zm163.85 0q-18.73 0-32.02-13.29-13.29-13.29-13.29-32.02 0-18.73 13.29-32.02Q625.12-852 643.85-852q18.73 0 32.01 13.29 13.29 13.29 13.29 32.02 0 18.73-13.29 32.02-13.28 13.29-32.01 13.29Zm162.84 0q-18.73 0-32.02-13.29-13.29-13.29-13.29-32.02 0-18.73 13.29-32.02Q787.96-852 806.69-852q18.73 0 32.02 13.29Q852-825.42 852-806.69q0 18.73-13.29 32.02-13.29 13.29-32.02 13.29ZM153.31-598.54q-18.73 0-32.02-13.29Q108-625.12 108-643.85q0-18.73 13.29-32.01 13.29-13.29 32.02-13.29 18.73 0 32.02 13.29 13.29 13.28 13.29 32.01 0 18.73-13.29 32.02-13.29 13.29-32.02 13.29Zm653.38 0q-18.73 0-32.02-13.29-13.29-13.29-13.29-32.02 0-18.73 13.29-32.01 13.29-13.29 32.02-13.29 18.73 0 32.02 13.29Q852-662.58 852-643.85q0 18.73-13.29 32.02-13.29 13.29-32.02 13.29ZM153.31-434.69q-18.73 0-32.02-13.29Q108-461.27 108-480q0-18.73 13.29-32.02 13.29-13.29 32.02-13.29 18.73 0 32.02 13.29 13.29 13.29 13.29 32.02 0 18.73-13.29 32.02-13.29 13.29-32.02 13.29Zm653.38 0q-18.73 0-32.02-13.29-13.29-13.29-13.29-32.02 0-18.73 13.29-32.02 13.29-13.29 32.02-13.29 18.73 0 32.02 13.29Q852-498.73 852-480q0 18.73-13.29 32.02-13.29 13.29-32.02 13.29ZM153.31-271.85q-18.73 0-32.02-13.29Q108-298.42 108-317.15q0-18.73 13.29-32.02 13.29-13.29 32.02-13.29 18.73 0 32.02 13.29 13.29 13.29 13.29 32.02 0 18.73-13.29 32.01-13.29 13.29-32.02 13.29Zm653.38 0q-18.73 0-32.02-13.29-13.29-13.28-13.29-32.01 0-18.73 13.29-32.02 13.29-13.29 32.02-13.29 18.73 0 32.02 13.29Q852-335.88 852-317.15q0 18.73-13.29 32.01-13.29 13.29-32.02 13.29ZM153.31-108q-18.73 0-32.02-13.29Q108-134.58 108-153.31q0-18.73 13.29-32.02 13.29-13.29 32.02-13.29 18.73 0 32.02 13.29 13.29 13.29 13.29 32.02 0 18.73-13.29 32.02Q172.04-108 153.31-108Zm163.84 0q-18.73 0-32.01-13.29-13.29-13.29-13.29-32.02 0-18.73 13.29-32.02 13.28-13.29 32.01-13.29 18.73 0 32.02 13.29 13.29 13.29 13.29 32.02 0 18.73-13.29 32.02Q335.88-108 317.15-108ZM480-108q-18.73 0-32.02-13.29-13.29-13.29-13.29-32.02 0-18.73 13.29-32.02 13.29-13.29 32.02-13.29 18.73 0 32.02 13.29 13.29 13.29 13.29 32.02 0 18.73-13.29 32.02Q498.73-108 480-108Zm163.85 0q-18.73 0-32.02-13.29-13.29-13.29-13.29-32.02 0-18.73 13.29-32.02 13.29-13.29 32.02-13.29 18.73 0 32.01 13.29 13.29 13.29 13.29 32.02 0 18.73-13.29 32.02Q662.58-108 643.85-108Zm162.84 0q-18.73 0-32.02-13.29-13.29-13.29-13.29-32.02 0-18.73 13.29-32.02 13.29-13.29 32.02-13.29 18.73 0 32.02 13.29Q852-172.04 852-153.31q0 18.73-13.29 32.02Q825.42-108 806.69-108Z"/>
  </g>

  <path fill="url(#squareGradient)" filter="url(#dropShadow)"
        d="M370.15-271.85q-41.82 0-70.06-28.24-28.24-28.24-28.24-70.06v-220.7q0-41.82 28.24-70.06 28.24-28.24 70.06-28.24h220.7q41.82 0 70.06 28.24 28.24 28.24 28.24 70.06v220.7q0 41.82-28.24 70.06-28.24 28.24-70.06 28.24h-220.7Z"/>
</svg>