<svg xmlns="http://www.w3.org/2000/svg" width="512" height="512" viewBox="0 0 512 512">
    <defs>
        <linearGradient id="checkGradient" x1="0%" y1="0%" x2="100%" y2="100%">
            <stop offset="0%" style="stop-color:#22c55e;" />
            <stop offset="100%" style="stop-color:#16a34a;" />
        </linearGradient>
        <filter id="dropShadow" x="-10%" y="-10%" width="120%" height="120%">
            <feDropShadow dx="0" dy="4" stdDeviation="5" flood-color="#000" flood-opacity="0.1"/>
        </filter>
    </defs>

    <g filter="url(#dropShadow)">
        <g fill="#4b5563">
            <rect x="224" y="64" width="256" height="64" rx="32"/>
            <rect x="224" y="224" width="256" height="64" rx="32"/>
            <rect x="160" y="384" width="320" height="64" rx="32"/>
        </g>
        
        <g fill="url(#checkGradient)">
            <path d="M118.1 39.9c8.9-9.9 24-10.7 33.9-1.8s10.7 24 1.8 33.9l-72 80c-4.4 4.9-10.6 7.8-17.2 7.9s-12.9-2.4-17.6-7L7 113c-9.3-9.4-9.3-24.6 0-34s24.6-9.4 33.9 0l22.1 22.1 55.1-61.2z"/>
            <path d="M118.1 199.9c8.9-9.9 24-10.7 33.9-1.8s10.7 24 1.8 33.9l-72 80c-4.4 4.9-10.6 7.8-17.2 7.9s-12.9-2.4-17.6-7L7 273c-9.4-9.4-9.4-24.6 0-33.9s24.6-9.4 33.9 0l22.1 22.1 55.1-61.2z"/>
        </g>

        <circle cx="48" cy="416" r="48" fill="#d1d5db"/>
        <circle cx="48" cy="416" r="32" fill="#f9fafb"/>
    </g>
</svg>