<svg xmlns="http://www.w3.org/2000/svg" height="24px" viewBox="0 -960 960 960" width="24px">
  <defs>
    <linearGradient id="contentGradient" x1="0%" y1="0%" x2="100%" y2="100%">
      <stop offset="0%" style="stop-color:#4ade80;stop-opacity:1" />
      <stop offset="100%" style="stop-color:#16a34a;stop-opacity:1" />
    </linearGradient>
    <filter id="dropShadow" x="-20%" y="-20%" width="140%" height="140%">
      <feDropShadow dx="10" dy="10" stdDeviation="15" flood-color="#000" flood-opacity="0.2"/>
    </filter>
  </defs>

  <g fill="#4b5563">
    <path d="M153.31-598.54q-18.73 0-32.02-13.29Q108-625.12 108-643.85q0-18.73 13.29-32.01 13.29-13.29 32.02-13.29 18.73 0 32.02 13.29 13.29 13.28 13.29 32.01 0 18.73-13.29 32.02-13.29 13.29-32.02 13.29Zm0 163.85q-18.73 0-32.02-13.29Q108-461.27 108-480q0-18.73 13.29-32.02 13.29-13.29 32.02-13.29 18.73 0 32.02 13.29 13.29 13.29 13.29 32.02 0 18.73-13.29 32.02-13.29 13.29-32.02 13.29Zm0 162.84q-18.73 0-32.02-13.29Q108-298.42 108-317.15q0-18.73 13.29-32.02 13.29-13.29 32.02-13.29 18.73 0 32.02 13.29 13.29 13.29 13.29 32.02 0 18.73-13.29 32.01-13.29 13.29-32.02 13.29Zm0 163.85q-18.73 0-32.02-13.29Q108-134.58 108-153.31q0-18.73 13.29-32.02 13.29-13.29 32.02-13.29 18.73 0 32.02 13.29 13.29 13.29 13.29 32.02 0 18.73-13.29 32.02Q172.04-108 153.31-108Zm163.84 0q-18.73 0-32.01-13.29-13.29-13.29-13.29-32.02 0-18.73 13.29-32.02 13.28-13.29 32.01-13.29 18.73 0 32.02 13.29 13.29 13.29 13.29 32.02 0 18.73-13.29 32.02Q335.88-108 317.15-108ZM480-108q-18.73 0-32.02-13.29-13.29-13.29-13.29-32.02 0-18.73 13.29-32.02 13.29-13.29 32.02-13.29 18.73 0 32.02 13.29 13.29 13.29 13.29 32.02 0 18.73-13.29 32.02Q498.73-108 480-108Zm163.85 0q-18.73 0-32.02-13.29-13.29-13.29-13.29-32.02 0-18.73 13.29-32.02 13.29-13.29 32.02-13.29 18.73 0 32.01 13.29 13.29 13.29 13.29 32.02 0 18.73-13.29 32.02Q662.58-108 643.85-108Z"/>
  </g>

  <path fill="url(#contentGradient)" filter="url(#dropShadow)"
        d="M369.15-271.85q-41.3 0-69.3-28.34t-28-68.96v-385.54q0-41.31 28-69.31t69.3-28h386.54q40.62 0 68.96 28Q853-796 853-754.69v385.54q0 40.62-28.35 68.96-28.34 28.34-68.96 28.34H369.15Z"/>
</svg>