<svg xmlns="http://www.w3.org/2000/svg" width="20" height="20" viewBox="0 0 20 20">
  <path fill="#e0e7ff" d="M5 3a2 2 0 0 0-2 2v10a2 2 0 0 0 2 2h10a2 2 0 0 0 2-2V6.62a2 2 0 0 0-.586-1.414l-1.621-1.621A2 2 0 0 0 13.379 3H5z"/>
  <path fill="#c7d2fe" d="M13 3v3.5A1.5 1.5 0 0 1 11.5 8h-4A1.5 1.5 0 0 1 6 6.5V3h7z"/>
  <path fill="#4f46e5" d="M6 11.5v-5.5a.5.5 0 0 1 .5-.5h4a.5.5 0 0 1 .5.5v5.5H6z"/>
  <path fill="#34d399" d="M14.81 9.548l-4.83 4.83a2.2 2.2 0 0 0-.578 1.02l-.375 1.498a.89.89 0 0 0 1.079 1.078l1.498-.374a2.2 2.2 0 0 0 1.02-.578l4.83-4.83a1.87 1.87 0 0 0-2.645-2.644z"/>
</svg>