<svg xmlns="http://www.w3.org/2000/svg" width="100" height="100" viewBox="0 0 100 100">
    <!-- 
        Author: Gemini
        Date: September 14, 2025
        Description: A modern, multicolor icon for a data chart, graph, or analytics.
    -->
    <defs>
        <!-- A vibrant gradient for the graph's area fill -->
        <linearGradient id="chartGradient" x1="0%" y1="0%" x2="0%" y2="100%">
            <stop offset="0%" style="stop-color:#3b82f6; stop-opacity:0.5"/>
            <stop offset="100%" style="stop-color:#60a5fa; stop-opacity:0"/>
        </linearGradient>
        <!-- A subtle shadow to give the chart a modern, layered appearance -->
        <filter id="chartShadow" x="-5%" y="-5%" width="110%" height="110%">
            <feDropShadow dx="1" dy="2" stdDeviation="2" flood-color="#000" flood-opacity="0.1"/>
        </filter>
    </defs>

    <!-- The main chart container, with a clean off-white fill and shadow -->
    <rect x="10" y="20" width="80" height="55" rx="5" 
          fill="#f9fafb" 
          filter="url(#chartShadow)"/>
    
    <!-- The background grid lines -->
    <g stroke="#e5e7eb" stroke-width="1.5">
        <path d="M20 30h60 M20 40h60 M20 50h60 M20 60h60"/>
    </g>

    <!-- The filled area under the line graph -->
    <path d="M25 64 L 34 51 l 8 13 l 14 -20 l 12 11 V 64 H 25 Z"
          fill="url(#chartGradient)"/>

    <!-- The main line of the graph -->
    <path d="M25 64 L 34 51 l 8 13 l 14 -20 l 12 11"
          fill="none" 
          stroke="#3b82f6" 
          stroke-width="4" 
          stroke-linecap="round" 
          stroke-linejoin="round"/>
    
    <!-- The data points on the graph -->
    <g fill="#3b82f6" stroke="#f9fafb" stroke-width="2">
        <circle cx="25" cy="64" r="3"/>
        <circle cx="34" cy="51" r="3"/>
        <circle cx="42" cy="64" r="3"/>
        <circle cx="56" cy="44" r="3"/>
        <circle cx="68" cy="55" r="3"/>
    </g>
</svg>