<svg xmlns="http://www.w3.org/2000/svg" width="24" height="24" viewBox="0 0 24 24">
    <defs>
        <linearGradient id="leatherGradient" x1="0%" y1="0%" x2="100%" y2="100%">
            <stop offset="0%" style="stop-color:#a16207;" />
            <stop offset="100%" style="stop-color:#713f12;" />
        </linearGradient>
        <linearGradient id="metalGradient" x1="0%" y1="0%" x2="100%" y2="100%">
            <stop offset="0%" style="stop-color:#eab308;" />
            <stop offset="100%" style="stop-color:#ca8a04;" />
        </linearGradient>
        <filter id="caseShadow" x="-10%" y="-10%" width="120%" height="130%">
            <feDropShadow dx="0" dy="1" stdDeviation="1.5" flood-color="#000" flood-opacity="0.2"/>
        </filter>
    </defs>

    <g filter="url(#caseShadow)">
        <path fill="url(#leatherGradient)" 
              d="M4 21q-.825 0-1.412-.587T2 19V8q0-.825.588-1.412T4 6h16q.825 0 1.413.588T22 8v11q0 .825-.587 1.413T20 21H4z"/>
        
        <path fill="url(#metalGradient)" 
              d="M10 6V4q0-.825.588-1.412T12 2h0q.825 0 1.413.588T14 4v2h-4z"/>
    </g>
    
    <g transform="translate(18, 18)">
        <circle r="5" fill="#f9fafb"/>
        <circle r="5" fill="none" stroke="#3b82f6" stroke-width="1.5"/>
        <path d="M0 -2.5 V 0 H 2" 
              fill="none" 
              stroke="#374151" 
              stroke-width="1" 
              stroke-linecap="round" 
              stroke-linejoin="round"/>
    </g>
</svg>