<svg xmlns="http://www.w3.org/2000/svg" width="24" height="24" viewBox="0 0 24 24">
  <path fill="#e0e7ff" d="M15 3l5.5 5.5v9.324A3.176 3.176 0 0117.324 21H6.676A3.176 3.176 0 013.5 17.824V6.176A3.176 3.176 0 016.676 3H15z"/>
  <path fill="#c7d2fe" d="M14.5 3.5L20 9h-5.5V3.5z"/>
  <path fill="#4f46e5" d="M7.75 3v2.647c0 .878.716 1.594 1.594 1.594h5.312c.878 0 1.594-.716 1.594-1.594V3h-8.5z"/>
  <path fill="#34d399" d="M16.25 21v-4.765a1.59 1.59 0 00-1.594-1.588H9.344a1.59 1.59 0 00-1.594 1.588V21h8.5z"/>
</svg>