<svg xmlns="http://www.w3.org/2000/svg" width="24" height="24" viewBox="0 0 24 24">
  <defs>
    <linearGradient id="goldGradient" x1="0%" y1="0%" x2="100%" y2="100%">
      <stop offset="0%" style="stop-color:#fde047;stop-opacity:1" />
      <stop offset="100%" style="stop-color:#f59e0b;stop-opacity:1" />
    </linearGradient>
    <linearGradient id="lightGradient" x1="0%" y1="0%" x2="100%" y2="100%">
      <stop offset="0%" style="stop-color:#fef08a;stop-opacity:1" />
      <stop offset="100%" style="stop-color:#facc15;stop-opacity:1" />
    </linearGradient>
    <filter id="dropShadow" x="-20%" y="-20%" width="140%" height="140%">
      <feDropShadow dx="1" dy="1" stdDeviation="1.5" flood-color="#000" flood-opacity="0.2"/>
    </filter>
  </defs>

  <g filter="url(#dropShadow)">
    <path fill="url(#goldGradient)" fill-rule="evenodd" 
          d="M9.318 3.39a2.751 2.751 0 0 1 5.364 0c.216.092.41.229.568.403c.325.361.483.888.294 1.434a3.76 3.76 0 0 1-2.794 2.448v5.732a5 5 0 0 1 .387-.334l.011-.01l3.34-2.386a3.88 3.88 0 0 1 .25-3.686a1.43 1.43 0 0 1 1.325-.67c.24.017.473.088.684.205a2.785 2.785 0 0 1 3.405.799a2.83 2.83 0 0 1-.03 3.516c.065.234.08.48.04.719a1.44 1.44 0 0 1-.953 1.137a3.8 3.8 0 0 1-3.842-.805l-3.322 2.375a3.39 3.39 0 0 0-1.295 2.67v4.313H15a.75.75 0 0 1 0 1.5H9a.75.75 0 0 1 0-1.5h2.25v-4.313a3.39 3.39 0 0 0-1.295-2.67l-3.322-2.375a3.8 3.8 0 0 1-3.842.805a1.44 1.44 0 0 1-.952-1.137a1.7 1.7 0 0 1 .038-.72a2.83 2.83 0 0 1-.029-3.515a2.785 2.785 0 0 1 3.405-.8a1.64 1.64 0 0 1 .684-.203a1.43 1.43 0 0 1 1.325.669c.696 1.095.8 2.49.25 3.686l3.34 2.387l.011.009q.204.158.387.334V7.675a3.76 3.76 0 0 1-2.794-2.448a1.42 1.42 0 0 1 .294-1.434c.157-.174.352-.31.568-.403M11 3.25h2a1.248 1.248 0 0 0-2 0Z" 
          clip-rule="evenodd" />
    
    <g fill="url(#lightGradient)">
      <circle cx="12" cy="4" r="1.5" opacity="0.8"/>
      <circle cx="4.5" cy="8.5" r="1" opacity="0.8"/>
      <circle cx="19.5" cy="8.5" r="1" opacity="0.8"/>
    </g>
  </g>
</svg>