<svg xmlns="http://www.w3.org/2000/svg" width="24" height="24" viewBox="0 0 24 24">
    <defs>
        <filter id="meterShadow" x="-5%" y="-5%" width="110%" height="110%">
            <feDropShadow dx="0.5" dy="0.5" stdDeviation="0.5" flood-color="#000" flood-opacity="0.2"/>
        </filter>
    </defs>

    <g filter="url(#meterShadow)">
        <circle cx="12" cy="12" r="11" fill="#374151"/>

        <circle cx="12" cy="12" r="9" fill="#3b82f6"/>

        <g fill="#ffffff" transform="translate(12,12)">
            <rect x="-0.75" y="-8.5" width="1.5" height="2" rx="0.5"/>
            <rect x="-0.75" y="-8.5" width="1.5" height="2" rx="0.5" transform="rotate(90)"/>
            <rect x="-0.75" y="-8.5" width="1.5" height="2" rx="0.5" transform="rotate(180)"/>
            <rect x="-0.75" y="-8.5" width="1.5" height="2" rx="0.5" transform="rotate(270)"/>

            <rect x="-0.5" y="-8" width="1" height="1.5" rx="0.25" transform="rotate(30)"/>
            <rect x="-0.5" y="-8" width="1" height="1.5" rx="0.25" transform="rotate(60)"/>
            <rect x="-0.5" y="-8" width="1" height="1.5" rx="0.25" transform="rotate(120)"/>
            <rect x="-0.5" y="-8" width="1" height="1.5" rx="0.25" transform="rotate(150)"/>
            <rect x="-0.5" y="-8" width="1" height="1.5" rx="0.25" transform="rotate(210)"/>
            <rect x="-0.5" y="-8" width="1" height="1.5" rx="0.25" transform="rotate(240)"/>
            <rect x="-0.5" y="-8" width="1" height="1.5" rx="0.25" transform="rotate(300)"/>
            <rect x="-0.5" y="-8" width="1" height="1.5" rx="0.25" transform="rotate(330)"/>
        </g>

        <path d="M11.5 12 L12.5 12 L16.5 7.5 L15.5 6.5 Z" fill="#ffffff"/>

        <circle cx="12" cy="12" r="1.5" fill="#ffffff"/>
    </g>
</svg>