<svg xmlns="http://www.w3.org/2000/svg" width="24" height="24" viewBox="0 0 24 24">
  <defs>
    <linearGradient id="blueGradient" x1="0%" y1="0%" x2="100%" y2="100%">
      <stop offset="0%" style="stop-color:#3b82f6;" />
      <stop offset="100%" style="stop-color:#2563eb;" />
    </linearGradient>
    <filter id="dropShadow" x="-10%" y="-10%" width="120%" height="120%">
      <feDropShadow dx="1" dy="1" stdDeviation="1" flood-color="#000" flood-opacity="0.15"/>
    </filter>
  </defs>

  <g filter="url(#dropShadow)">
    <path fill="#f3f4f6" 
          d="M3 12v6a2 2 0 0 0 2 2h14a2 2 0 0 0 2-2v-6H3Z"/>
    
    <path fill="url(#blueGradient)" 
          d="M21 8V6a2 2 0 0 0-2-2H5a2 2 0 0 0-2 2v2h18Z"/>
    
    <g fill="#9ca3af">
      <rect x="7" y="1" width="2" height="4" rx="1"/>
      <rect x="15" y="1" width="2" height="4" rx="1"/>
    </g>
  </g>
  
  <g>
    <circle cx="17" cy="18" r="4" fill="url(#blueGradient)"/>
    <path d="M17 16v2.5h1.5" 
          fill="none" stroke="#ffffff" stroke-width="1.5" stroke-linecap="round" stroke-linejoin="round"/>
  </g>
</svg>