<svg xmlns="http://www.w3.org/2000/svg" height="24px" viewBox="0 -960 960 960" width="24px">
  <defs>
    <linearGradient id="undoGradient" x1="0%" y1="0%" x2="100%" y2="100%">
      <stop offset="0%" style="stop-color:#4ade80;stop-opacity:1" />
      <stop offset="100%" style="stop-color:#16a34a;stop-opacity:1" />
    </linearGradient>
    <filter id="dropShadow" x="-20%" y="-20%" width="140%" height="140%">
      <feDropShadow dx="10" dy="10" stdDeviation="15" flood-color="#000" flood-opacity="0.2"/>
    </filter>
  </defs>
  <path d="M649.69-565.54H364.85q-58.62 0-98.77 42.65-40.16 42.66-40.16 102.43 0 59.77 40.16 102.61Q306.23-275 364.85-275h269.07q17.77 0 30.39 12.62 12.61 12.61 12.61 30.38t-12.61 30.38Q651.69-189 633.92-189H364.85q-93.77 0-159.35-68.27t-65.58-163.19q0-94.92 65.58-163t159.35-68.08h284.84l-71.23-71.23q-12.31-12.31-13-29.88-.69-17.58 13-30.27 12.69-12.69 30.08-12.19 17.38.5 30.07 13.19l138.08 138.07q7.62 7.62 11.42 16.35 3.81 8.73 3.81 18.96t-3.81 18.46q-3.8 8.23-11.42 15.85L637.61-435.15q-12.3 12.3-28.88 12.5-16.58.19-29.27-12.5-13.69-12.7-13.69-29.58t12.69-29.58l71.23-71.23Z" fill="url(#undoGradient)" filter="url(#dropShadow)"/>
</svg>