<svg xmlns="http://www.w3.org/2000/svg" width="24" height="24" viewBox="0 0 16 16">
    <!-- 
        Author: Gemini
        Date: September 13, 2025
        Description: A modern, multicolor icon for "Settings" or "Configuration".
    -->
    <defs>
        <!-- A metallic gradient for the main gear body -->
        <linearGradient id="gearGradient" x1="0%" y1="0%" x2="100%" y2="100%">
            <stop offset="0%" style="stop-color:#9ca3af;" />
            <stop offset="100%" style="stop-color:#6b7280;" />
        </linearGradient>
        <!-- A vibrant gradient for the center hub -->
        <linearGradient id="centerGradient" x1="0%" y1="0%" x2="100%" y2="100%">
            <stop offset="0%" style="stop-color:#60a5fa;" />
            <stop offset="100%" style="stop-color:#3b82f6;" />
        </linearGradient>
        <!-- A subtle shadow to give the gear a 3D, tangible appearance -->
        <filter id="dropShadow" x="-10%" y="-10%" width="120%" height="120%">
            <feDropShadow dx="0.5" dy="0.5" stdDeviation="0.5" flood-color="#000" flood-opacity="0.2"/>
        </filter>
    </defs>

    <!-- The entire gear icon, with the shadow applied for depth -->
    <g filter="url(#dropShadow)">
        <!-- The outer gear body, filled with the metallic gradient -->
        <path fill="url(#gearGradient)" 
              d="M6.5 0A1.5 1.5 0 0 0 5 1.5v1.304l-1.13-.652a1.5 1.5 0 0 0-2.048.549l-1.5 2.598a1.5 1.5 0 0 0 .549 2.05L2 8l-1.13.652A1.5 1.5 0 0 0 .323 10.7l1.5 2.598a1.5 1.5 0 0 0 2.049.55L5 13.195V14.5A1.5 1.5 0 0 0 6.5 16h3a1.5 1.5 0 0 0 1.5-1.5v-1.304l1.13.652a1.5 1.5 0 0 0 2.048-.549l1.5-2.598a1.5 1.5 0 0 0-.549-2.05L14 8l1.13-.652a1.5 1.5 0 0 0 .548-2.049l-1.5-2.598a1.5 1.5 0 0 0-2.049-.55L11 2.805V1.5A1.5 1.5 0 0 0 9.5 0z"/>
        
        <!-- The inner hub of the gear, filled with the vibrant blue gradient -->
        <circle cx="8" cy="8" r="2" fill="url(#centerGradient)"/>
    </g>
</svg>

