<svg xmlns="http://www.w3.org/2000/svg" height="24px" viewBox="0 -960 960 960" width="24px">
<path d="M320-120v-80h80v-80H200q-33 0-56.5-23.5T120-360v-400q0-33 23.5-56.5T200-840h560q33 0 56.5 23.5T840-760v400q0 33-23.5 56.5T760-280H560v80h80v80H320ZM200-360h560v-400H200v400Zm0 0v-400 400Z" fill="#e3e3e3"/>
<path d="M480-480q-66 0-113-47t-47-113q0-66 47-113t113-47q66 0 113 47t47 113q0 66-47 113t-113 47Zm0-80q33 0 56.5-23.5T560-640q0-33-23.5-56.5T480-720q-33 0-56.5 23.5T400-640q0 33 23.5 56.5T480-560Zm0-40Z" fill="#4285f4"/>
</svg>
