<svg xmlns="http://www.w3.org/2000/svg" height="24px" viewBox="0 -960 960 960" width="24px">
  <path d="M638-468 468-638q-6-6-8.5-13t-2.5-15q0-8 2.5-15t8.5-13l170-170q6 6 8.5 13t2.5 15q0 8-2.5 15t-8.5 13L694-468q-6 6-13 8.5t-15 2.5q-8 0-15-2.5t-13-8.5Z" fill="#a09bdfff"/>
  <path d="M120-560v-240q0-17 11.5-28.5T160-840h240q17 0 28.5 11.5T440-800v240q0 17-11.5 28.5T400-520H160q-17 0-28.5-11.5T120-560Z" fill="white"/>
  <path d="M520-160v-240q0-17 11.5-28.5T560-440h240q17 0 28.5 11.5T840-400v240q0 17-11.5 28.5T800-120H560q-17 0-28.5-11.5T520-160Z" fill="white"/>
  <path d="M120-160v-240q0-17 11.5-28.5T160-440h240q17 0 28.5 11.5T440-400v240q0 17-11.5 28.5T400-120H160q-17 0-28.5-11.5T120-160Z" fill="white"/>
  <path d="M520-560v-240q0-17 11.5-28.5T560-840h240q17 0 28.5 11.5T840-800v240q0 17-11.5 28.5T800-520H560q-17 0-28.5-11.5T520-560Z" fill="white"/>
</svg>
