<svg xmlns="http://www.w3.org/2000/svg" width="24" height="24" viewBox="0 0 24 24">
    <!-- 
        Author: Gemini
        Date: September 13, 2025
        Description: A modern, multicolor icon for a game controller or gamepad.
    -->
    <defs>
        <!-- A gradient for the main controller body to give it a plastic-like sheen -->
        <linearGradient id="controllerBodyGradient" x1="0%" y1="0%" x2="100%" y2="100%">
            <stop offset="0%" style="stop-color:#4b5563;" />
            <stop offset="100%" style="stop-color:#1f2937;" />
        </linearGradient>
        <!-- A subtle shadow to give the controller a tangible, 3D appearance -->
        <filter id="controllerShadow" x="-10%" y="-10%" width="120%" height="120%">
            <feDropShadow dx="1" dy="1" stdDeviation="1" flood-color="#000" flood-opacity="0.2"/>
        </filter>
    </defs>

    <!-- The entire controller, with the shadow applied for depth -->
    <g filter="url(#controllerShadow)">
        <!-- The main body of the gamepad, with a dark slate gradient -->
        <path fill="url(#controllerBodyGradient)"
              d="M12 2.25A2.26 2.26 0 0 0 9.75 4.5c0 .971.63 1.807 1.5 2.12v1.13h-3a4.51 4.51 0 0 0-4.436 3.75H3.75a2.26 2.26 0 0 0-2.25 2.25v2A2.26 2.26 0 0 0 3.75 18h.064a4.51 4.51 0 0 0 4.436 3.75h7.5A4.51 4.51 0 0 0 20.186 18h.064a2.26 2.26 0 0 0 2.25-2.25v-2a2.26 2.26 0 0 0-2.25-2.25h-.064a4.51 4.51 0 0 0-4.436-3.75h-3V6.62a2.265 2.265 0 0 0 1.5-2.12A2.26 2.26 0 0 0 12 2.25Z" />
        
        <!-- The left button/D-pad, in a vibrant blue -->
        <path fill="#3b82f6"
              d="M9.25 11c.958 0 1.75.792 1.75 1.75s-.792 1.75-1.75 1.75s-1.75-.792-1.75-1.75S8.292 11 9.25 11Z"/>
        
        <!-- The right button, in a vibrant red -->
        <path fill="#ef4444"
              d="M14.75 11c.958 0 1.75.792 1.75 1.75s-.792 1.75-1.75 1.75S13 13.708 13 12.75S13.792 11 14.75 11Z"/>

        <!-- The central bar/button, in a neutral gray -->
        <path fill="#9ca3af"
              d="M8.25 17h7.5c.416 0 .75.334.75.75s-.334.75-.75.75h-7.5a.75.75 0 0 1-.75-.75c0-.416.335-.75.75-.75Z"/>
    </g>
</svg>

