<svg xmlns="http://www.w3.org/2000/svg" width="512" height="512" viewBox="0 0 512 512">
  <defs>
    <linearGradient id="blueGradient" x1="0%" y1="0%" x2="100%" y2="100%">
      <stop offset="0%" stop-color="#3b82f6" />
      <stop offset="100%" stop-color="#2563eb" />
    </linearGradient>
    <linearGradient id="purpleGradient" x1="0%" y1="0%" x2="100%" y2="100%">
      <stop offset="0%" stop-color="#a855f7" />
      <stop offset="100%" stop-color="#9333ea" />
    </linearGradient>
    <linearGradient id="pinkGradient" x1="0%" y1="0%" x2="100%" y2="100%">
      <stop offset="0%" stop-color="#ec4899" />
      <stop offset="100%" stop-color="#db2777" />
    </linearGradient>
    <filter id="dropShadow" x="-20%" y="-20%" width="140%" height="140%">
      <feDropShadow dx="0" dy="8" stdDeviation="10" flood-color="#000" flood-opacity="0.2"/>
    </filter>
  </defs>

  <path fill="url(#pinkGradient)" filter="url(#dropShadow)"
        d="M13.9 362.2L48 346.4l164.3 75.9c27.7 12.8 59.6 12.8 87.3 0l164.3-75.9l34.1 15.8c8.5 3.9 13.9 12.4 13.9 21.8s-5.4 17.9-13.9 21.8l-218.6 101c-14.9 6.9-32.1 6.9-47 0l-218.5-101C5.4 401.8 0 393.3 0 384s5.4-17.9 13.9-21.8Z" />

  <path fill="url(#purpleGradient)" filter="url(#dropShadow)"
        d="M48.1 218.4l164.3 75.9c27.7 12.8 59.6 12.8 87.3 0L464 218.4l34.1 15.8c8.5 3.9 13.9 12.4 13.9 21.8s-5.4 17.9-13.9 21.8l-218.6 101c-14.9 6.9-32.1 6.9-47 0l-218.6-101C5.4 273.8 0 265.3 0 256s5.4-17.9 13.9-21.8L48 218.4Z" />

  <path fill="url(#blueGradient)" filter="url(#dropShadow)"
        d="M232.5 5.2c14.9-6.9 32.1-6.9 47 0l218.6 101c8.5 3.9 13.9 12.4 13.9 21.8s-5.4 17.9-13.9 21.8l-218.6 101c-14.9 6.9-32.1 6.9-47 0l-218.6-101C5.4 145.8 0 137.3 0 128s5.4-17.9 13.9-21.8z" />
</svg>