<svg xmlns="http://www.w3.org/2000/svg" width="24" height="24" viewBox="0 0 24 24">
  <defs>
    <linearGradient id="woodGradient" x1="0%" y1="0%" x2="100%" y2="100%">
      <stop offset="0%" style="stop-color:#a16207;stop-opacity:1" />
      <stop offset="100%" style="stop-color:#713f12;stop-opacity:1" />
    </linearGradient>
    <linearGradient id="goldGradient" x1="0%" y1="0%" x2="100%" y2="100%">
      <stop offset="0%" style="stop-color:#fde047;stop-opacity:1" />
      <stop offset="100%" style="stop-color:#f59e0b;stop-opacity:1" />
    </linearGradient>
    <filter id="dropShadow" x="-20%" y="-20%" width="140%" height="140%">
      <feDropShadow dx="1" dy="1" stdDeviation="1" flood-color="#000" flood-opacity="0.2"/>
    </filter>
  </defs>

  <g filter="url(#dropShadow)">
    <path fill="url(#woodGradient)" 
          d="M21 20a1 1 0 0 1-1 1H4a1 1 0 0 1-1-1v-2a1 1 0 0 1 1-1h16a1 1 0 0 1 1 1v2zm-10-2H11V6a1 1 0 0 1 2 0v12z"/>
    
    <g fill="url(#goldGradient)">
      <path d="M9 14a4 4 0 0 1-8 0c0-1.5.7-2.8 2-3.5V8a1 1 0 0 1 2 0v2.5c1.3.7 2 2 2 3.5z"/>
      <path d="M23 14a4 4 0 0 1-8 0c0-1.5.7-2.8 2-3.5V8a1 1 0 1 1 2 0v2.5c1.3.7 2 2 2 3.5z"/>
    </g>
    
    <path fill="url(#woodGradient)" 
          d="M20 12.5a1.5 1.5 0 0 1-1.5-1.5h-13A1.5 1.5 0 0 1 4 12.5H2a1 1 0 0 1 0-2h20a1 1 0 1 1 0 2h-2z"/>
    
    <circle cx="12" cy="6" r="2" fill="url(#goldGradient)"/>
  </g>
</svg>