<svg xmlns="http://www.w3.org/2000/svg" width="15" height="15" viewBox="0 0 15 15">
  <defs>
    <linearGradient id="goldGradient" x1="0%" y1="0%" x2="100%" y2="100%">
      <stop offset="0%" style="stop-color:#fde047;stop-opacity:1" />
      <stop offset="100%" style="stop-color:#f59e0b;stop-opacity:1" />
    </linearGradient>
    <linearGradient id="silverGradient" x1="0%" y1="0%" x2="100%" y2="100%">
      <stop offset="0%" style="stop-color:#e5e7eb;stop-opacity:1" />
      <stop offset="100%" style="stop-color:#9ca3af;stop-opacity:1" />
    </linearGradient>
    <filter id="dropShadow" x="-20%" y="-20%" width="140%" height="140%">
      <feDropShadow dx="0.5" dy="0.5" stdDeviation="0.5" flood-color="#000" flood-opacity="0.2"/>
    </filter>
  </defs>

  <g filter="url(#dropShadow)">
    <path fill="url(#silverGradient)" 
          d="M6.5 2A1.5 1.5 0 0 0 5 3.5v4.55a2.5 2.5 0 0 0-2 2.45A4.5 4.5 0 0 0 7.5 15H8a5 5 0 0 0 5-5v-.853A2.147 2.147 0 0 0 10.853 7H8V3.5A1.5 1.5 0 0 0 6.5 2" />
    <path fill="url(#goldGradient)" 
          d="M4 6a3 3 0 0 1 0-6h7a3 3 0 1 1 0 6H9V3.5a2.5 2.5 0 0 0-5 0z" />
  </g>
</svg>