<svg xmlns="http://www.w3.org/2000/svg" width="16" height="16" viewBox="0 0 16 16">
  <defs>
    <filter id="shadow" x="-20%" y="-20%" width="140%" height="140%">
      <feDropShadow dx="0.5" dy="0.5" stdDeviation="0.5" flood-color="#000000" flood-opacity="0.1"/>
    </filter>
  </defs>

  <path fill="#64748b" d="M7.37 15.7a2.5 2.5 0 0 1-.865-.728h5.5c.717 0 1.19 0 1.56-.03c.355-.03.518-.081.62-.134c.282-.144.512-.373.656-.656c.052-.103.104-.265.133-.62c.03-.367.03-.844.03-1.56v-5.5a2.5 2.5 0 0 1 .729.865c.272.535.272 1.23.272 2.63v2c0 1.4 0 2.1-.272 2.64a2.5 2.5 0 0 1-1.09 1.09c-.535.272-1.23.272-2.64.272h-2c-1.4 0-2.1 0-2.63-.272z"/>

  <path fill="#cbd5e1" d="M3.5 12c.228.304.523.553.865.728C4.9 13 5.595 13 6.995 13h2c1.4 0 2.1 0 2.64-.272a2.5 2.5 0 0 0 1.09-1.09c.272-.535.272-1.23.272-2.64v-2c0-1.4 0-2.1-.272-2.63a2.5 2.5 0 0 0-.728-.865v5.5c0 .717 0 1.19-.03 1.56c-.03.355-.081.518-.134.62a1.5 1.5 0 0 1-.656.656c-.103.052-.265.104-.62.133c-.367.03-.844.03-1.56.03h-5.5z"/>

  <path fill="#f8fafc" filter="url(#shadow)" d="M.272 1.37C0 1.905 0 2.6 0 4v2c0 1.4 0 2.1.272 2.63c.24.47.622.853 1.09 1.09c.535.272 1.23.272 2.63.272h2c1.4 0 2.1 0 2.63-.272a2.5 2.5 0 0 0 1.09-1.09c.272-.535.272-1.23.272-2.63V4c0-1.4 0-2.1-.272-2.63A2.5 2.5 0 0 0 8.622.28C8.087.008 7.392.008 5.992.008h-2c-1.4 0-2.1 0-2.63.272a2.5 2.5 0 0 0-1.09 1.09Z"/>

  <circle cx="4.5" cy="4.5" r="3" fill="#ef4444"/>

  <path fill="#ffffff" d="M3.5 3.5a.5.5 0 0 1 .707 0L5 4.293L5.793 3.5a.5.5 0 1 1 .707.707L5.707 5l.793.793a.5.5 0 1 1-.707.707L5 5.707l-.793.793a.5.5 0 0 1-.707-.707L4.293 5 3.5 4.207a.5.5 0 0 1 0-.707Z"/>
</svg>